<?xml version="1.0" standalone="no"?>
<!DOCTYPE svg PUBLIC "-//W3C//DTD SVG 20010904//EN"
 "http://www.w3.org/TR/2001/REC-SVG-20010904/DTD/svg10.dtd">
<svg version="1.0" xmlns="http://www.w3.org/2000/svg"
 width="480.000000pt" height="480.000000pt" viewBox="0 0 480.000000 480.000000"
 preserveAspectRatio="xMidYMid meet">
<metadata>
Created by potrace 1.14, written by Peter Selinger 2001-2017
</metadata>
<g transform="translate(0.000000,480.000000) scale(0.100000,-0.100000)"
fill="#000000" stroke="none">
<path d="M2116 4760 c-20 -22 -40 -59 -47 -84 l-11 -43 -41 9 c-46 10 -103 3
-159 -19 -45 -18 -52 -45 -10 -43 15 1 43 2 62 1 l35 -1 -44 -23 c-52 -26
-109 -98 -144 -182 -14 -33 -44 -130 -67 -215 -23 -85 -44 -163 -46 -172 -10
-35 12 -17 51 42 l40 60 7 -105 c4 -57 16 -140 27 -184 14 -54 18 -96 14 -133
-4 -41 -1 -65 12 -94 26 -55 93 -142 125 -161 30 -17 43 -40 85 -148 14 -39
35 -91 46 -117 10 -26 19 -65 19 -87 0 -40 -1 -41 -35 -41 -27 0 -35 -4 -35
-18 0 -9 -9 -23 -20 -30 -17 -10 -20 -23 -20 -75 0 -93 -6 -107 -46 -107 -27
0 -36 -6 -48 -29 -13 -25 -22 -29 -73 -34 -32 -3 -77 -15 -101 -27 -24 -11
-89 -32 -145 -46 -301 -74 -415 -140 -490 -281 -27 -52 -38 -89 -46 -153 -13
-101 -28 -300 -36 -460 -3 -63 -13 -189 -21 -279 -15 -158 -13 -211 7 -277 8
-25 5 -47 -16 -107 -29 -88 -31 -113 -9 -166 14 -36 14 -48 -1 -141 -8 -56
-20 -202 -26 -323 -5 -122 -14 -266 -19 -321 -6 -54 -10 -109 -10 -122 l0 -24
324 0 325 0 -4 29 c-2 17 -8 47 -14 68 -10 39 -5 78 20 140 12 28 10 38 -9 86
l-22 53 20 65 c23 75 36 168 45 324 4 61 10 130 14 155 l6 45 65 -99 c36 -55
70 -105 75 -113 7 -10 2 -20 -22 -39 -37 -28 -39 -43 -19 -101 13 -38 13 -41
-11 -72 -18 -23 -31 -64 -49 -153 -20 -101 -64 -363 -64 -382 0 -3 527 -6
1171 -6 l1171 0 -6 22 c-27 89 -76 365 -118 663 -6 44 -11 179 -12 300 l-1
220 -34 67 -33 67 21 96 c25 113 26 176 6 345 -8 69 -17 159 -20 200 -22 266
-73 449 -147 518 -14 12 -87 44 -164 72 -76 27 -206 74 -289 104 -82 30 -160
55 -173 56 -37 0 -87 26 -105 54 -11 16 -27 26 -42 26 -21 0 -24 5 -31 58 -8
66 -19 92 -39 92 -8 0 -15 9 -15 20 0 16 -7 20 -35 20 l-35 0 0 66 c0 36 5 75
11 86 6 11 45 55 87 97 43 42 86 93 97 114 11 20 24 37 30 37 23 0 76 69 100
130 53 135 61 190 33 225 -20 25 -20 28 -4 84 9 31 16 71 17 87 l0 29 10 -25
c6 -14 16 -52 23 -85 l13 -60 27 57 c15 31 31 76 35 100 5 24 9 37 10 31 1 -7
6 -13 11 -13 13 0 13 86 0 147 -6 26 -23 74 -39 106 -15 31 -24 57 -20 57 10
0 129 -131 129 -141 0 -5 4 -9 10 -9 12 0 4 50 -22 121 -12 34 -41 82 -73 120
-30 35 -52 65 -50 67 1 2 29 -1 61 -7 32 -6 62 -7 66 -3 5 5 -13 20 -39 35
-27 14 -86 58 -133 97 -47 39 -114 88 -150 110 -63 37 -172 80 -206 80 -12 0
-7 9 17 30 l34 30 -281 0 -282 0 -36 -40z"/>
</g>
</svg>
