<svg version="1.2" xmlns="http://www.w3.org/2000/svg" viewBox="0 0 210 220" width="1.2em" height="1.2em" fill="currentColor"><style>.a{fill:none;stroke:currentColor;stroke-width:2.7}.b{fill:none;stroke:currentColor;stroke-width:2.1}.c{fill:none;stroke:currentColor}.d{stroke:currentColor}.e{stroke:currentColor;stroke-width:.4}.f{fill:none;stroke:currentColor;stroke-width:3.2}.g{fill:none;stroke:currentColor;stroke-width:2.5}.h{fill:none;stroke:currentColor;stroke-width:2.6}.i{stroke:currentColor;stroke-width:.6}</style><path fill-rule="evenodd" class="a" d="m36.5 219.2c0 0 0.5-8.9 8.4-32.1"/><path fill-rule="evenodd" class="a" d="m52.4 190.6c0 0-32.6-12.6-37.9-35.3-5.3-22.7-3.5-30.3-3.5-30.3l-7.6-0.5c0 0-4.8 23 0.5 33.8 5.3 10.9 21.5 22 21.5 22l2.8-4.1"/><path fill-rule="evenodd" class="b" d="m3.7 124.4l5.9-23.4c18.8-5.1 18-5.5 39.8 1.5 21.7 7 28.3 10.9 57.6-9.1 29.2-20 62.1-12.5 72.7-0.7 10.7 11.9 24 25.9 24 25.9"/><path fill-rule="evenodd" class="a" d="m52.2 190.4c0 0-12-21.4-11.1-47.8 0.9-26.4 5.3-41.1 5.3-41.1"/><path fill-rule="evenodd" class="a" d="m55.1 104.2l-11 8.7"/><path fill-rule="evenodd" class="a" d="m121.9 85.6l-0.3 20.6c0 0-7.6-1.6-10.9-4.8-3.2-3.3-5.5-6.8-5.5-6.8"/><path fill-rule="evenodd" class="a" d="m191.2 69.2c0 0 2.4 18.8 5 24.7 2.7 5.8 5.9 15.3 6.4 18.3 0.5 3 2 9.9 2 9.9 0 0 5-10.6 3.6-22.2-1.3-11.7-5.5-19.4-8.2-22.7-2.8-3.2-8.8-8-8.8-8z"/><path fill-rule="evenodd" class="c" d="m191.4 69.9c0 0-1.8-25.8-3.2-30.8-1.3-5-3.2-8.2-7.6-12-4.4-3.7-19-12.9-28.2-15.6-9.3-2.8-23.4-9.3-43.3-9.3-19.9 0-41.2 5.3-58.9 13.3-17.6 8-36.6 27.7-38.8 37.1-2.3 9.4-5.3 18.4-3.4 31.4 1.9 13 1.7 17 1.7 17"/><path class="d" d="m107.4 19.6c0 0 4.1-0.6 6.2 3.6 2.1 4.3 2.6 2.9 2.5 7.2-0.1 4.2 0 6.2-2.6 8.8-2.6 2.7-4.3 3.3-6.5 3.3-2.3 0-4.8-0.1-7.1-2.1-2.4-2-3.4-6.2-3.4-9.4 0-3.3 1.4-6.6 3.4-8.4 2-1.7 4-3.1 7.5-3z"/><path fill-rule="evenodd" class="c" d="m108 12.7c0 0 5 0.4 9.5 3.7 4.5 3.2 5.6 9.2 5.2 14.5-0.3 5.2-0.5 10.5-5.1 14.7-4.6 4.3-6.9 4.8-12.6 4.8-5.8 0-8.1-1.8-11.4-4.7-3.2-2.8-4.9-7.6-4.6-12.6 0.2-5 1.5-9.6 5.5-13.4 4-3.7 6.9-7.2 13.5-7z"/><path class="e" d="m23.8 178.6c-9.4-7.1-16.6-14.6-19.4-20.4-1.4-2.9-2.1-6.3-2.4-11.3-0.3-5.3 0.3-13 1.5-20.3l0.3-1.6h0.5c0.3 0 1.8 0.1 3.4 0.2l2.7 0.2v0.2c0 0.2 0 1.4-0.1 2.9 0 4.4 0.3 8.5 1.4 14.9 0.7 4.3 1.9 10.3 2.7 13 1.3 4.9 3.8 9.4 7.7 14 1 1.1 4 4.3 5.1 5.2l0.5 0.5-1.2 1.7c-0.6 1-1.2 1.8-1.2 1.8 0 0-0.7-0.4-1.5-1z"/><path fill-rule="evenodd" class="c" d="m53.7 40.4c0 0-0.8-9.8 4.5-15.9 5.4-6.1 9.8-7.3 13.3-5.6 3.5 1.6 6.5 3.2 8.2 7.8 1.8 4.7 1.2 8 0.4 8.5-0.7 0.5-3.1 0.4-4-1.1-0.9-1.5-0.7-5.1-5.6-4.9-4.9 0.3-5.5 0-8.3 2.9-2.7 2.9-2.3 2.3-2.3 7.9 0 5.6 1.2 6.7 3 8.9 1.7 2.1 3.8 3.6 8.3 3.5 4.5-0.2 5-1 6.4-3.3 1.4-2.2 1.4-4.2 2.9-4.1 1.5 0.1 2.5-1.3 1.5 5.7-1 7-4.8 9.7-8.3 9.8-3.5 0.1-8.3 0.6-12.8-3.3-4.5-3.8-5.9-4.6-6.9-11-0.5-2.8-0.3-5.8-0.3-5.8z"/><path fill-rule="evenodd" class="c" d="m128.8 35.3c0 0-0.1-7.2 4.8-14.6 4.9-7.4 12.2-7.7 15.2-3.8 3 3.9 4.4 5.4 4.3 8.6-0.1 3.3-2.1 7.7-4.2 3.4-2.1-4.3-0.8-5.6-6.5-5.6-5.6 0-7.4 4.1-8 8.6-0.6 4.5-0.3 9 6.3 11.7 6.5 2.6 8.7-5.3 10.3-5.4 1.6-0.1 1.5 1.8-0.3 7.9-1.9 6-11.7 6.8-16.8 1.5-5.2-5.2-3.6-2.9-4.5-5.5-0.8-2.7-0.6-6.8-0.6-6.8z"/><path fill-rule="evenodd" class="c" d="m165.1 26.2c0 0-0.3 0.2-0.4 0.8-0.5 2.1-1.5 7.2-2.5 13-0.9 6.2-1.7 11.9-2 14 0 0.6 0.1 0.8 0.1 0.8l0.4 0.3 3.1 1.2h0.7l0.5-0.5 3.4-5.9 0.8-0.7 0.9-0.2 3.5 0.4 1 0.3 0.4 0.9 2.9 13.5 0.3 0.6 0.4 0.3 2.6 0.7 0.6-0.1 0.1-0.7-2.5-16.2c-0.1-0.9-0.1-0.9 0.1-2.4 0.2-1.6 0.2-1.6 0.6-2.5l3.6-6.4 0.2-0.7-0.2-0.7-1.3-2.5-0.6-0.5-0.6 0.3-4.4 8.5-0.5 0.6h-0.9l-6.4-1.1-0.6-0.3-0.1-0.6 2.2-11.3v-0.8l-0.6-0.6-3.7-1.3z"/><path fill-rule="evenodd" class="f" d="m90.6 162.8c0 0-1 5.8 3.2 5.8 4.3 0 4.1 0 6-1.4 2-1.4 3-2.1 3-2.1 0 0 2 3.5 6.6 3.7 4.6 0.2 4 0 6-1.6 1.9-1.6 1.9-1.7 1.9-1.7"/><path fill-rule="evenodd" class="c" d="m70 150.9c0 0-9.5-4.3-10.5-19.5-1-15.3 7.5-26 7.5-26 0 0-1.1 6.7 0.6 9.1 1.8 2.4 14.1 2.4 17.8 0.1 3.6-2.2 12-20 12-20 0 0 3.8 14.6 4 26.4 0.1 11.7 1.3 16-3.2 22.9-4.5 6.8-4.5 6.8-4.5 6.8 0 0 3.8-6.8 2.7-10-1.2-3.1-3.2-4.8-4.8-4.7-1.6 0.1-1.7 8.5-5.6 10.6-3.9 2.1-4.8 2-8.1 1.5-3.4-0.5-4.4-1.6-5.5-4-1.2-2.4-2-5.6-2-5.6 0 0-3.9 3.6-3.8 5.9 0.1 2.2 3.4 6.5 3.4 6.5z"/><path class="e" d="m67.2 148.4c-4-3.6-6.5-9.1-7.2-15.8-0.2-2-0.1-6.1 0.1-8 0.6-5.3 2.3-10.6 4.8-15.2 1.1-1.9 1.3-2 1.3-0.5-0.1 1.2 0.1 3.5 0.4 4.3 0.5 1.6 1.1 2.3 2.9 2.8 2.2 0.6 6.8 0.9 10 0.5 3.6-0.4 5.6-1 6.8-2.1 1.5-1.5 4.3-5.8 7.2-11.3l0.7-1.3 1.1-0.5c0.6-0.4 1.4-0.9 1.8-1.1 0.5-0.3 0.9-0.5 0.9-0.5 0.2 0 1.3 5.7 1.9 9.9 0.7 4.6 0.9 7.2 1.1 13.6 0.3 9.4 0.2 11.4-0.3 13.8-0.5 2.3-1.4 4.4-3.2 7.2-0.5 0.9-1.1 1.6-1.1 1.6 0 0 0-0.5 0.2-1.1 0.6-2.3 0.5-3.3-0.2-5-1.2-2.6-3.3-4.4-4.9-4.1-0.7 0.1-1 0.7-1.6 2.7-2 6.4-2.5 7.2-5.4 8.6-2.3 1.1-3.3 1.2-5.9 0.9-3.4-0.5-4.5-1.2-5.6-3.4-0.6-1.2-1.5-3.7-2-5.4-0.2-0.6-0.4-1.2-0.5-1.2-0.1 0-2 2-2.6 2.8-0.8 1-1.4 2.3-1.6 3-0.3 1 0.3 2.7 1.6 4.9 0.2 0.4 0.3 0.7 0.3 0.7-0.1 0-0.5-0.4-1-0.8z"/><path fill-rule="evenodd" class="c" d="m121.7 95.4c0 0 9.8-12.8 17.4-12.7 7.6 0.2 12.3 0.9 16.4 9.2 4.1 8.2 7 10.3 7.7 26 0.8 15.6 0.9 16.8-2.2 22.7-3.1 5.9-5.8 8.8-5.8 8.8 0 0 0.9-5 0.8-7.5-0.1-2.5-2.3-5.5-2.3-5.5 0 0-1.5 4.3-4.7 7.5-3.3 3.1-4.1 3.6-6.4 3.6-2.2 0-5.7-2.3-6.9-5-1.1-2.8-2.1-5.9-2.1-5.9 0 0-2.2 3.8-2.2 6.5 0 2.8 3.7 7.1 3.7 7.1 0 0-4.9-0.8-7.5-7.5-2.6-6.6-1.9-14.8-2-19.8-0.1-5 1.8-12 2.8-14.5 1-2.5 2.2-5.2 2.2-5.2 0 0-1.9 7.8 0.6 9.8 2.5 2 15-1.5 16.8-2.3 1.7-0.7 6-12.6 5.1-16.2-0.9-3.6-11.4-9-16.6-6.8-5.3 2.3-6.8 3-9.6 6-2.9 3-5.3 7.7-5.3 7.7"/><path class="e" d="m132.6 148.6c-1.6-1.1-2.9-2.6-3.9-4.7-1.5-2.8-2.3-6.3-2.5-11.3-0.2-3-0.2-10.6 0-12.4 0.3-3.8 1.4-8.8 2.7-11.9 0.3-0.8 0.6-1.5 0.6-1.5 0.1 0 0.1 0.7 0.1 1.6q-0.1 3.6 1.3 4.8c1.4 1.3 5.9 1 12.9-0.8 3.2-0.8 4.3-1.2 4.9-1.7 0.9-0.9 2-3.4 3.2-6.9 1.6-4.8 2.1-8.4 1.4-10-1.3-2.7-6.4-5.7-11.3-6.7-1.8-0.4-4-0.3-5.3 0.1-2.4 0.9-6 2.7-7.4 3.8-2.1 1.6-4.6 4.5-6.4 7.3l-0.7 1.1v-1.9l-0.1-1.9 1-1.2c0.5-0.7 1.8-2.1 2.9-3.2 2.8-2.9 5.6-5.2 7.8-6.4 2.9-1.6 4.5-1.8 8.7-1.5 4.2 0.4 6.5 1.2 8.7 3.3 1.7 1.6 2.5 2.7 4.5 6.7 0.7 1.3 1.8 3.2 2.4 4.4 2.6 4.9 3.7 8.6 4.3 14.7 0.4 3.6 0.8 12.6 0.8 17 0 3.7-0.2 5.2-0.8 6.9-0.3 1.2-1.7 4.1-2.8 6-0.9 1.5-3.2 5-3.5 5.3-0.2 0.1-0.2 0.1-0.1-0.2 0.1-0.7 0.4-3.6 0.4-4.8 0-1.4-0.2-2.5-0.9-3.9-0.5-1.1-1.7-3.1-1.8-3.1-0.1 0-0.2 0.3-0.4 0.8-0.8 1.9-2.1 4.2-3.3 5.8-1.1 1.2-3.6 3.6-4.5 4.1-2.4 1.4-5.5 0.7-8-1.9-1.1-1.2-1.4-1.9-3-6.4l-0.8-2.4-0.9 1.7c-1.5 3-2.1 5.2-1.7 6.8 0.2 1 1.1 2.8 2 4.1 0.4 0.5 0.6 1 0.5 1-0.1 0-0.5-0.3-1-0.6z"/><path fill-rule="evenodd" class="a" d="m190 103.9l-4.3 0.4c0 0 10 27.2 5.8 47.2-4.3 20-4.3 24-11.8 32-7.5 8-13.7 8.5-13.7 8.5"/><path fill-rule="evenodd" class="a" d="m166.3 194l-1-14.7"/><path fill-rule="evenodd" class="a" d="m169.8 110.3c0 0 2.9 11.6 2.9 23.3-0.1 11.8 0.5 19.6 0.5 19.6 0 0 7.3 4.3 8.4 6.1 1 1.7 1.8 3.1 1.8 3.1 0 0-10.5 14.5-23.9 21.2-13.4 6.8-20.1 5.9-20.1 5.9"/><path fill-rule="evenodd" class="c" d="m150.5 187.5l1.9 5.9c0 0 4.6-3.4 7.2-6.9 2.6-3.5 3.3-4.6 3.3-4.6"/><path class="e" d="m152.4 192c-1-3.1-1.4-4.2-1.3-4.3 0 0 0.6-0.2 1.3-0.5 2.2-0.8 4.1-1.6 6.6-2.9 1.3-0.6 2.4-1.2 2.4-1.2 0.5-0.3-2.7 3.9-4.2 5.5-1.4 1.4-4.3 3.9-4.5 3.9-0.1 0-0.2-0.2-0.3-0.5z"/><path fill-rule="evenodd" class="g" d="m117.5 150.8l4.4 1.7"/><path fill-rule="evenodd" class="a" d="m148.1 188.2c0 0 3.2 9.3 4.8 18.1 1.7 8.7 2.8 12.8 2.8 12.8"/><path fill-rule="evenodd" class="a" d="m142.8 189.3l3.3 29.6"/><path fill-rule="evenodd" class="a" d="m47.1 178.9c0 0 4 2.7 13.9 5.8 9.9 3.2 9.9 3.2 9.9 3.2"/><path fill-rule="evenodd" class="a" d="m62.6 218.9l-0.6-34"/><path fill-rule="evenodd" class="a" d="m70.5 187.7c0 0 6.9-3 11.7-2 4.9 1 11.4 3.8 20.5 3.5 9.2-0.2 10.9-0.7 16.7-3.7 5.7-3 16.6-2.6 18.1-0.9 1.5 1.8 4.1 5.6 0.9 11.9-3.3 6.2-9.9 18.1-13.7 18.1-3.7 0-14.6-5.9-14.6-5.9h-14.2c0 0-10.3 8.4-14.7 8.7-4.3 0.2-7.6-6.9-7.7-9.7-0.1-2.7-0.8-4.8-3.4-7.2-2.6-2.4-3.9-6.8-3.2-9.3 0.6-2.5 3.6-3.5 3.6-3.5z"/><path fill-rule="evenodd" class="h" d="m97.2 189c0 0 0.9 12 0.9 15.9 0 3.8-0.1 3.8-0.1 3.8"/><path fill-rule="evenodd" class="h" d="m110.4 189.1c0 0 0.3 9.4 0.2 13-0.1 3.6-0.4 6.8-0.4 6.8"/><path fill-rule="evenodd" class="a" d="m121.9 195.4l-11 4.5"/><path fill-rule="evenodd" class="a" d="m85.2 200.2l12.7-1.8"/><path fill-rule="evenodd" class="c" d="m90.1 213.1c0 0 1.6 6.5 4.3 6 2.6-0.5 9.6-8.5 9.6-8.5 0 0 6 8.3 9.4 8.4 3.3 0.1 5.2-6.3 5.2-6.3"/><path class="e" d="m93.5 218.6c-0.5-0.2-1.5-1.6-2.1-3.1-0.8-1.9-0.9-2.4-0.4-2.7 0.3-0.1 1.5-1 2.8-2l2.3-1.7h6.9 6.9l3.1 1.5c1.8 0.9 3.6 1.8 4.1 2 0.5 0.2 1 0.5 1 0.6 0 0.5-1.6 3.2-2.3 4.1-1.8 1.9-3.1 1.7-6.1-0.8-1.1-1-3.7-3.9-5.1-5.7l-0.6-0.8-2.2 2.4c-3.2 3.5-6.3 6.1-7.4 6.3-0.3 0-0.6 0-0.9-0.1z"/><path fill-rule="evenodd" class="i" d="m199.1 112.2c-4.1-4.3-9.4-10.1-14.4-15.5-5.3-5.8-5.4-5.9-6.9-7.1-4.4-3.7-11.5-6.9-18.8-8.3-5.2-1.1-6.4-1.2-12.8-1.2-6.1 0-6.9 0.1-11.8 0.9-7.8 1.4-15.8 4.3-22.9 8.4-1.2 0.6-4.5 2.7-7.3 4.6-2.8 1.8-5.3 3.4-5.4 3.5-0.2 0-0.4-0.4-0.8-2.1l-0.5-2.1-1.7 3.4c-1.2 2.4-1.9 3.6-2.2 3.8-0.7 0.5-5.5 2.9-7.4 3.7q-4.9 2-9.3 2.6c-2 0.3-5.9 0.3-7.9 0.1l-1.5-0.3-0.1-0.6c0-0.4-0.1-0.7-0.2-0.7-0.1 0-0.3 0-0.4-0.1q-0.3-0.1-0.6 0.5c-0.3 0.5-0.4 0.5-1.1 0.4-1.2-0.1-5.7-1.4-11.1-3.2-15.9-5.1-19.8-6.2-24.1-6.6-4.1-0.4-8.1 0.2-16.7 2.7-1.4 0.3-2.6 0.7-2.8 0.7-0.2 0-0.3-0.2-0.3-0.9 0-1.2-0.6-6.8-1.3-12.2-0.9-6.6-1.1-9.8-0.8-13.5 0.3-5.2 0.9-8.4 2.7-16 1.4-5.4 1.6-6.1 2.8-8.3 2.1-4 5.5-8.4 10.5-13.5 8.2-8.3 17.4-15.1 26-19.1 15.7-7.3 34.6-12.2 51.8-13.2 4.9-0.3 13.6-0.2 17.5 0.3 6.1 0.7 11.8 1.9 18.4 3.9 5.2 1.6 17.6 5.8 19.8 6.7 8.8 3.9 19.8 10.7 24.1 14.9 2.2 2.1 3.3 3.5 4.4 5.7 1.7 3.6 2.3 6.1 3.2 15.1 0.6 6 1.5 17.2 1.5 17.3-0.1 0.1-0.3-0.1-0.5-0.3-0.3-0.2-0.5-0.4-0.6-0.3-0.1 0.1 0.9 7.2 1.7 12.3 1.4 8.4 2.5 12.8 4.4 17.4 2.8 6.7 5 13.2 5.7 16.8 0.2 1.1 0.3 2 0.3 2-0.1 0-1.2-1.1-2.6-2.6zm-16.8-46.8c0.1-0.3-0.4-3.6-1.2-8.6-1.7-10.9-1.8-10.7 1.1-15.9 2.4-4.2 2.4-4.3 1.3-6.4-0.5-0.8-1-1.5-1.3-1.7-0.4-0.3-0.4-0.3-0.9-0.1-0.4 0.2-1 1.2-2.8 4.7-1.2 2.4-2.4 4.5-2.5 4.5-0.3 0.1-5.9-0.8-6.8-1-0.2-0.1-0.3-0.3-0.3-0.5 0-0.2 0.4-2.8 1-5.8 0.6-3 1.1-5.7 1.1-6 0-0.3-0.2-0.6-0.4-0.9-0.5-0.4-3.8-1.6-5-1.8-0.7-0.1-0.8-0.1-1 0.3-0.3 0.3-1.1 4.3-2.2 10.1-0.6 3.5-2.6 16.9-2.6 17.9 0 1 0.2 1.1 2.3 1.9 1.8 0.7 2.5 0.8 3 0.2 0.2-0.2 1.2-1.7 2.1-3.4 1.3-2.1 1.9-3.1 2.3-3.2 0.4-0.2 0.8-0.2 2.2-0.1 2.2 0.3 2.5 0.4 2.8 1 0.1 0.3 0.8 3.5 1.6 7.1 0.8 3.7 1.5 6.8 1.6 6.9 0.1 0.2 0.3 0.5 0.4 0.6 0.4 0.3 2.5 0.8 3.3 0.8 0.7 0 0.8-0.1 0.9-0.6zm-107.3-4.6c2.9-0.5 5.5-3.2 6.7-6.7 0.6-2.1 1-4.3 1-6.7 0-2.7-0.1-2.9-1.7-2.9-1.5 0-1.8 0.3-2.8 2.4-1.9 3.9-2.6 4.6-5.7 4.9-4 0.4-6.5-0.4-8.8-2.8-2.9-3-3.4-4.5-3.4-10.3 0-1.8 0.1-3.2 0.2-3.6 0.2-0.5 0.7-1.2 2-2.5 2.3-2.4 2.7-2.5 6-2.8 4.5-0.3 5.4 0.1 6.7 3.2 0.7 1.7 0.9 2.1 1.8 2.5 0.9 0.4 2.6 0.5 3.2 0.2 0.7-0.4 1-1.3 1-3.4 0.1-3.6-1.4-7.5-3.7-10.1-1.2-1.4-4.3-3.2-6.7-4.1-3.7-1.2-8.3 0.9-12.6 5.8-2.4 2.8-3.6 5.3-4.5 9.5-0.3 1.8-0.4 2.5-0.4 6.9 0 4.8 0.1 5.7 0.8 8.5 0.4 1.7 1.4 3.9 2.3 5 1.2 1.3 4.2 3.9 5.6 4.8 1.3 0.9 3 1.6 4.6 2 1.9 0.4 6.3 0.5 8.4 0.2zm69.8-9.5c2.6-0.5 4.9-2.1 5.8-4.1 0.8-1.6 1.8-5.7 1.9-7.2 0-1.7-0.3-2.2-1.3-2.2-0.7 0-1.2 0.4-2.6 2.2-1.9 2.5-3.3 3.4-5.1 3.6-2.5 0.2-6.4-2-7.8-4.5-0.8-1.4-1-2.6-0.9-5.3 0.2-5 1.5-7.9 4.3-9.3 1.2-0.6 1.2-0.6 3.7-0.6 3.5 0 3.6 0.1 4.9 3.3 1.1 2.8 1.9 3.9 2.9 3.9 1 0 1.7-0.6 2.3-2.3 0.9-2.2 0.8-5.1-0.1-7-0.7-1.3-2.5-3.9-3.9-5.4-3.2-3.6-8.7-3.2-13 0.9-3.5 3.3-6.4 9.4-7.3 15.2-0.4 3-0.2 7.4 0.4 9.7l0.4 1.7 2.6 2.6c1.8 1.7 3 2.8 3.9 3.3 2.7 1.6 5.9 2.1 8.9 1.5zm-34.5-0.9c1.8-0.4 3.5-1.2 5.3-2.5 3.4-2.6 5.4-5.2 6.4-8.4 0.7-2.5 1.2-7.1 1.2-10.7 0-6.2-2.4-11.2-6.7-13.6-6.7-3.8-12.5-3.8-17.4-0.2-1.8 1.3-5.6 4.9-6.7 6.4-1.7 2.2-3 5.2-3.5 8.6-0.5 2.5-0.3 6.9 0.2 8.9 0.5 1.9 1.7 4.4 2.8 5.6 0.9 1.2 3.6 3.5 5.1 4.4 1.4 0.8 3.6 1.6 5.4 1.8 2 0.2 6.2 0.1 7.9-0.3z"/><path class="i" d="m95.7 99.2c0-0.1 0.3-0.8 0.8-1.7l0.7-1.5 0.2 0.7c0.4 1.3 0.3 1.5-0.7 2.1-0.9 0.5-1 0.6-1 0.4z"/></svg>