<svg version="1.2" xmlns="http://www.w3.org/2000/svg" viewBox="0 0 164 184" width="1.2em" height="1.2em" fill="currentColor"><style>.a{fill:oklch(19% 0 0deg)}</style><path fill-rule="evenodd" d="m83.8 6c6.6 0 7.3 0.2 10.2 5h-6.7c-4.4 0.1-7.5 0.6-8.8 1.5-1.1 0.9-2.8 1.5-3.8 1.5-1 0-2.8 1.2-4.1 2.8-1.3 1.5-2.9 3.7-3.5 5-0.6 1.2-1.1 3-1.1 4 0 0.9-1.3 2.5-3 3.5-1.6 0.9-3 2.3-3 3 0 0.7 0.9 0.2 2.2-1 1.6-1.6 3.5-2.3 6.6-2.3 3.4 0 4.5 0.5 7.7 5.1l1.6-2.8c0.9-1.5 2.7-3.4 4-4.1 1.3-0.7 3.7-1.2 5.4-1 2.2 0.2 3.9 1.5 10 9.7l2.8-2c1.5-1 4.3-1.9 6.2-1.9 1.9 0 3.5 0.3 3.5 0.8 0.1 0.4-0.9 1.6-2 2.7-1.1 1.1-2.1 2.5-2 3 0 0.5 1.3-0.6 2.9-2.5 2.7-3.2 3-3.3 3.7-1.5 0.4 1.1 0.4 3.7-0.6 9.5l3.8-0.5c2.7-0.4 4.6 0 7 1.5 2.9 1.8 3.2 2.3 2.7 6-0.4 3.5-0.2 4.2 2 5.5 1.8 1.1 2.5 2.4 2.5 4.5 0 2.3-0.8 3.6-7 8l-11.7-11.1c-6.5-6.1-13.1-12-14.8-13-1.7-1.1-4.6-1.9-6.5-1.9-1.9 0-5.7 0.9-8.5 2-2.7 1-4.1 1.9-3 1.9 1.1 0 3.1-0.6 4.5-1.4 1.4-0.8 4.4-1.4 6.8-1.5 3.7 0 5 0.7 11 5.8 3.7 3.2 10.2 9.3 14.5 13.5 4.2 4.2 8.4 9.2 9.3 10.9 1 1.8 2.5 5.5 3.5 8.3 1 2.7 1.5 5.3 1.2 5.7-0.4 0.5-0.1 0.8 0.5 0.8 0.7 0 1-0.9 0.6-2.3-0.3-1.2-1.5-4.7-2.6-7.7-1.1-3-2.4-6-2.9-6.5-0.5-0.5-0.7-1.8-0.4-2.8 0.3-0.9 1-1.7 1.5-1.7 0.6 0 1.9-0.9 3-2 1.1-1.1 2-3.2 2-4.8 0.1-1.5-0.9-3.6-2-4.7-1.5-1.4-2.1-3.2-2-6.3 0-3.7-0.4-4.4-3.2-6.2-1.8-1.1-4.8-2-6.5-2-3.1 0-3.3-0.2-3.3-3.5 0-1.9-0.2-4.2-0.5-5q-0.5-1.5 5.8-5.7c3.4-2.3 7.7-4.8 12.7-6.8v22.3c0 12.2-0.4 23.8-0.9 25.7-0.5 1.9-1.2 4.4-1.7 5.5-0.6 1.5-0.5 1.8 0.4 1.2 0.6-0.4 1.5-2.1 2.7-7l1.9 2.9c1.5 2.4 1.6 3 0.5 3.6-1 0.6-1.1 0.8-0.1 0.8 0.9 0 1.1 2 0.8 7.7-0.2 4.3-0.8 9.9-1.5 12.5-0.6 2.7-1.5 4.6-2.1 4.3-0.6-0.3-0.8 0.6-0.4 2.2 0.3 1.6 0.8 3.5 1.1 4.3 0.2 0.8 0.9 5.3 1.3 10 0.8 7.2 0.7 8.9-0.7 11-0.9 1.4-2.3 3.6-3 5-1.2 2.3-1.3 2.1-1.3-3.5 0-3.3-0.6-7.5-1.3-9.3-0.6-1.8-1.4-3.2-1.7-3.2-0.3 0-0.4 1.8-0.2 4 0.2 3.4 0 3.9-1.5 3.2-0.9-0.4-2.5-2.5-3.5-4.7q-1.8-4-1.8-2c-0.1 1.1 1.5 3.8 3.5 6 1.9 2.2 3.5 4.8 3.5 5.7 0 1 0.6 1.8 1.3 1.8 0.9 0 1.1 1.4 0.7 5-0.3 2.7-0.3 5 0 5 0.3 0 1.1-1.9 1.8-4.2 0.8-2.4 2.5-5.5 3.8-7.1 2.2-2.5 2.4-3.3 1.8-10-0.3-3.9-1-8.9-1.5-11-0.5-2-0.6-5.3-0.1-7.2 0.4-2 1.1-3.4 1.7-3.2 0.6 0.2 1.1 1.9 1.3 3.8 0.2 1.9 0.7 3.9 1.2 4.4 0.4 0.5 1.1 3.5 1.5 6.5 0.3 3 1.5 6.7 2.6 8.3 1 1.5 3.9 3.6 6.4 4.7 2.5 1.1 4.9 2.9 5.5 4 0.6 1.1 1 3 1 4.2 0 1.3-0.6 3.2-1.3 4.3-0.8 1.1-3 2.8-5 3.7-2.1 1-3.6 2.1-3.5 2.5 0.1 0.5-0.1 1.8-0.5 3-0.5 1.5-0.2 2.8 0.8 3.8 0.8 0.8 1.5 2.2 1.5 3 0 0.8 1.2 3.9 2.7 6.7 2.4 4.8 2.5 5.2 0.7 4.5-1-0.4-3-1-4.4-1.3-1.4-0.3-4.2-1.2-6.2-2-2.1-0.8-4.6-1.4-5.5-1.4-1 0-2.8 1.5-4 3.3-1.3 1.7-2.3 4.2-2.3 5.4 0 1.3-0.2 2.3-0.5 2.3-0.3 0-2.3-0.9-4.5-2-2.5-1.3-4.5-3.2-5.4-5.3-0.9-2-1.1-3.7-0.5-4.5 0.5-0.6 0.6-1.4 0.2-1.6-0.5-0.2-3.6-0.6-7-1-4-0.4-6.3-0.2-6.3 0.4 0 0.6-1.3 1.2-3 1.5-2.1 0.3-2.8 0.9-2.3 1.7q0.8 1.3-0.5 0.5c-0.6-0.4-1.9 0-2.7 0.8-1.3 1.3-1.5 1.2-1.5-1.3 0-2.4 0.4-2.8 4-3.5 2.2-0.4 3.8-1.1 3.5-1.7-0.3-0.6 0.1-0.7 0.8-0.4 0.6 0.3 3.3-1.2 5.9-3.3 2.6-2.1 5.8-4.6 7.2-5.6 1.4-0.9 2.6-2.1 2.6-2.7 0-0.6-3.9-2.2-17.5-6.4l7.1-0.6c4.2-0.3 7.8-1.1 8.8-2 0.9-0.8 1.7-1.8 1.6-2.3 0-0.4-1.2 0.2-2.7 1.3-2.1 1.6-4.3 2.1-8.8 2-4.8 0-6.5-0.5-8.3-2.3-1.7-1.6-2.3-1.8-2.3-0.7 0 0.8 1.1 2.5 2.3 3.7 1.3 1.2 3.5 2.4 5.1 2.7 1.5 0.3 2.5 1 2.2 1.6-0.3 0.6-1.4 1-2.5 1-1.1 0-2 0.3-2 0.7 0 0.5-1.7 1.6-3.7 2.7-2.2 1-7.4 2.1-12.3 2.5-4.7 0.4-10.2 0.6-12.2 0.4-2.1-0.2-3.8-0.6-3.8-1.1 0-0.4-2.1-1-4.7-1.4-2.7-0.4-6.5-2-8.8-3.6-2.2-1.6-6-4.8-8.5-7.3-4.3-4.1-4.6-4.8-5.4-11.4-0.4-3.8-0.5-9-0.1-11.5 0.3-2.6 1.6-5.8 5.6-10.5l-1.6 3.5c-0.9 1.9-1.3 3.9-0.8 4.3 0.4 0.4 1.6-0.7 2.5-2.5 1-1.8 2.6-4.2 3.5-5.3 1-1.2 3.5-2.6 5.6-3.3 2.9-0.9 4.1-0.9 5.4 0 1.3 1 1.5 1 1 0-0.5-0.8 0-1.2 1.3-1.2 1.4 0 3 1.8 5.4 6.2 1.8 3.5 3.9 6.2 4.5 6 0.6-0.1 0.8 0.4 0.5 1-0.3 0.7 0.1 1.6 0.8 1.9 1 0.5 1.2-0.2 0.6-5.6l2.8 2.7c1.6 1.5 3.2 2.8 3.7 2.8 0.4 0 0.7-1.2 0.7-2.8 0-1.5-0.4-4.4-0.8-6.4-0.4-2-0.9-3.5-1.2-3.3-0.3 0.1-0.6-2.9-0.7-6.9-0.1-3.9-0.4-9.2-0.7-11.9-0.5-4.2-0.4-4.6 1.2-3.8 0.9 0.5 5.1 4.1 9.2 7.9 4.1 3.8 8.2 7.1 9 7.4 0.8 0.3-0.5 0.8-3 1.1-2.5 0.4-5.4 1.3-6.5 2.1-1.1 0.8-1.7 1.8-1.2 2.3 0.4 0.4 3.1 0 6-1 4-1.4 5.8-1.6 7.7-0.7 1.4 0.5 3.4 2.4 4.5 4 1.1 1.7 2.3 3 2.8 3 0.4 0 0.7-0.8 0.7-1.8 0.1-0.9-1.1-2.9-2.5-4.5-1.4-1.5-3.1-2.7-3.7-2.7-0.7 0-3.8-2.5-6.8-5.6-3-3-8.5-7.8-19-15.4l0.5 10.7c0.3 6 0.8 13.8 1 17.5 0.3 4.2 0.1 6.8-0.5 6.8-0.5 0-1.6-1.4-2.2-3-0.7-1.7-1.6-3-2-3-0.5 0-0.8 1.5-0.9 3.2-0.1 2.6-0.6 1.6-2.6-4.7-1.3-4.4-2.9-8.9-3.5-10-0.6-1.1-1.2-2.7-1.4-3.5-0.2-0.8-0.8-3.1-1.3-5q-0.9-3.5-1.1-1.5c-0.2 1.5-0.4 1.2-1-1-0.7-2.8-0.8-2.8-0.9-0.5 0 1.4 0.4 4.5 0.9 7 0.6 2.5 1.2 5.5 1.5 6.7 0.5 2.2 0.2 2.3-12.3 2.8l1.9-2.8c1-1.5 2.7-3.1 3.7-3.7 0.9-0.5 1.1-1 0.5-1-0.7 0-2.4 1.3-3.8 3-1.4 1.7-2.9 2.8-3.5 2.5-0.5-0.3-1.2 0.5-1.5 1.7-0.3 1.3-1.3 2.8-2.3 3.4-1.4 0.9-1.7 0.8-1.7-0.7 0-0.9 0.4-1.4 1-1.1 0.6 0.4 0.7 0 0.2-1.1-0.4-1-0.3-1.5 0.3-1.2 0.6 0.3 1.6-0.5 2.4-1.8 0.8-1.3 1.6-1.7 1.8-1 0.1 0.7 1.7-1.4 3.3-4.7 2-3.8 2.6-5.9 1.8-6-0.7 0-3.7 3.3-6.7 7.2-2.9 4-7.2 11.3-9.4 16.3-2.3 4.9-4.1 9.9-4.1 11 0 1.4 0.5 1 1.7-1.5 0.8-1.9 1.4-4.2 1.3-5-0.2-0.8 0.1-1.1 0.6-0.7 0.4 0.5 0.7 3.6 0.5 7-0.2 3.4-0.4 6.3-0.5 6.5-0.1 0.2-2-1.6-4.2-3.8-2.2-2.2-5-6-6.3-8.3-1.2-2.3-2.2-4.8-2.2-5.5 0-0.6-0.3-1.2-0.7-1.2-0.5-0.1-2 1.1-3.5 2.5-1.7 1.5-3.1 4.1-3.5 6.5-0.5 2.2-1.1 4-1.5 4-0.5 0-1.5-1.7-2.4-3.8-1.3-2.9-1.5-5.5-1-11.7 0.5-6.9 1-8.4 3.4-10.8 1.5-1.6 2.8-3.8 2.9-5 0.1-1.2 0.2-2.4 0.2-2.7 0-0.3 1.4-2.2 3.1-4.3 1.8-2.2 3.2-3.2 3.4-2.5 0.3 0.7 0.5 0.5 0.5-0.5 0.1-0.9 0.1-1.9 0.1-2.2 0-0.3 0.6-1.7 1.4-3.3 0.7-1.5 3.1-4.2 5.2-6 2.1-1.7 3.5-3.2 2.9-3.2-0.5 0-2.5 1.2-7.5 5l-1.7-2.1c-1.2-1.4-1.8-3.8-1.8-12.4h3.9c2.2 0 4-0.5 4.2-1 0.1-0.5 0.4-2.2 0.6-3.7 0.3-1.6 1.6-3.5 3.2-4.5 2.4-1.6 3-1.7 5.4-0.3 1.5 0.8 4.2 2.7 9.2 7l-3.7 2.4c-2.1 1.4-5 4-6.5 5.8-1.5 1.8-2.5 3.6-2.3 4 0.3 0.5-2.3 3.3-5.7 6.5-3.5 3.1-5.5 5.3-4.5 5 1-0.5 1.7-0.2 1.7 0.5 0 0.7 1-0.3 2.3-2.2 1.6-2.3 4.9-4.8 9.5-7.3 5.4-2.7 8.4-3.7 12-3.7 2.6 0 5.7 0.7 7 1.5 1.2 0.8 2.4 1.3 2.7 1 0.3-0.3-0.7-1.3-2.2-2.3-1.7-1.1-4.6-1.7-7.8-1.6-3.5 0-6.4 0.8-9.7 2.7-2.7 1.5-4.8 2.2-4.8 1.7 0-0.5 0.5-1.2 1-1.5 0.6-0.3 0.8-1 0.5-1.5-0.3-0.5 1.8-3 4.5-5.5 4.2-3.8 5.7-4.5 9-4.5 2.9 0 4.7 0.7 6.5 2.5 1.8 1.8 2.5 2.1 2.5 1 0-0.8-0.7-2.2-1.5-3-0.8-0.8-2.5-1.5-3.7-1.5-1.3 0.1-3-0.6-3.8-1.5-0.8-0.9-1.9-1.6-2.5-1.5-0.5 0-2.3-1.3-7-5.9l2.4-3c1.3-1.7 3.2-3.6 4.2-4.1q1.9-1 1.9 0c0 0.5 0.6 0.7 1.2 0.2q1.3-0.7 0.5 0.5c-0.4 0.7 0.4 3.5 1.8 6.3 1.4 2.7 3 4.8 3.5 4.5 0.6-0.3 1-1 1-1.5 0-0.5-0.6-0.7-1.2-0.3q-1.3 0.8-0.5-0.5c0.5-0.9 1.1-0.9 2.5 0.3 0.9 0.8 2 1.5 2.5 1.5 0.4 0-1.2-2.4-3.6-5.3-2.4-2.8-4.6-6.4-5-8q-0.7-2.7-1.9-2c-0.9 0.6-1 0.3-0.4-1.2 0.4-1.1 1-3.5 1.3-5.3 0.4-2.7 1.2-3.6 4.6-5.1 2.3-1 4.5-2.6 5-3.5 0.4-0.9 2.8-2.7 5.5-4.1 3.7-1.9 6.3-2.4 12-2.5zm-65.9 25.5c0.9 0.3 4.1 1.5 7.1 2.5 3 1 7.4 2.7 14 5.5l-2.5 2.5c-1.4 1.4-2.5 3.6-2.5 5 0 2.3-0.4 2.5-8.5 2.5v6.2c0 4.9 0.4 6.7 2 8.3 1.9 2 1.9 2.4 0.5 5.4-0.8 1.7-2.8 4.8-4.5 6.7-1.6 1.9-3.7 3.3-4.5 3.2-0.9-0.2-1.8-2.1-2.3-5.1-0.4-2.6-0.6-13.4-0.6-24.1 0.2-17.2 0.4-19.2 1.8-18.6zm127.2 20.5c0.5 0 1.2 3.5 1.5 7.7 0.4 5.6 0.2 8.5-0.8 10.1-1.1 2.1-1.1 2.5 0.5 3.3 0.9 0.5 4.4 4.5 7.7 8.9 3.3 4.4 6 8.7 6 9.5 0 1.2-0.3 1.3-1.3 0.2-0.8-0.6-1.9-2.2-2.5-3.5-0.7-1.2-1.9-2.2-2.7-2.2-0.8 0-1.7 1-2 2.2-0.2 1.3-0.1 4.2 0.3 6.4 0.7 3.9 0.5 4.4-3 7.8-2.1 2-4.1 3.6-4.5 3.6-0.5 0.1 0-0.7 0.9-1.7 1-1 1.8-2.6 1.8-3.6 0-0.9-0.7-1.7-1.5-1.7-0.8 0-1.7-0.6-1.8-1.3-0.2-0.6 0-2.5 0.5-4.2 0.4-1.7 0.8-4.6 0.8-6.5 0-1.9-0.4-5-1-6.8-0.6-1.8-1.8-3.4-3-3.7-1.1-0.3-2.7-1.2-3.5-2-1.3-1.3-1.1-2.3 2-8.3 1.9-3.7 3.7-8.4 4-10.5 0.4-2 1.1-3.7 1.6-3.7zm-7.3 24c0.4 0 1.8 0.9 3.2 2 2.2 1.7 2.5 2.6 2.5 8.7-0.1 5.4-0.6 7.8-2.7 11.8-1.5 2.7-2.7 4.3-2.7 3.5 0-0.8-0.7-3-1.6-4.8-1.1-2.3-1.2-3.8-0.5-5.2 0.6-1.1 1-5.2 1-9 0-3.8 0.3-7 0.8-7zm-73.9 7.5l1.7 4c0.9 2.2 2.2 6.2 3 9 0.7 2.7 1.1 5.1 0.9 5.2-0.3 0.2-1.4-2.1-2.4-5-1-2.8-2.2-7-2.5-9.2zm-26.2 38.6c1.4 0.9 1.7 2.2 1.4 6.7-0.4 5.7-0.4 5.7 5 11.5 4.4 4.8 5.8 5.8 7.8 5.4 1.7-0.3 4.2 0.5 7.3 2.4 4 2.4 4.7 3.4 4.7 5.9 0 1.6-0.4 3.2-1 3.5-0.5 0.3-1 0.9-1 1.5 0 0.6 0.7 0.8 1.5 0.5 0.9-0.3 1.5 0.1 1.5 0.7 0 0.7 1.3 2.4 3 3.8 1.7 1.4 3.1 2.9 3.1 3.5 0 0.6-2.4 0.8-6.3 0.4-3.4-0.4-8-1.5-10-2.5-2.1-1.1-3.9-2.6-4.1-3.4-0.3-0.8-0.5-0.2-0.5 1.5-0.1 1.6 0.5 4.2 1.3 5.7 1.5 2.7 1.5 2.8-0.7 2.2-1.3-0.3-4.3-2.6-6.8-5-3.1-3-5-6-6.4-10.1-1.1-3.2-2.1-5.2-2.3-4.6-0.1 0.7 0.2 2.1 0.7 3 0.8 1.5 0.1 2.1-4.3 3.5-4.9 1.7-5.2 1.7-6.4 0-0.7-0.9-1.3-2-1.3-2.5 0-0.4 0.7-0.7 1.5-0.7 0.9 0 1.7 1 1.9 2.2 0.3 1.9 0.4 1.8 0.5-0.5 0.1-1.5-0.4-2.8-1.1-3-0.7-0.2 0.6-0.8 3-1.5 2.3-0.7 4.6-1.9 5-2.7 0.5-1 0-2.1-1.3-3-1.9-1.5-1.9-1.5 1.3-4.2 2.4-2.1 3.3-3.6 3.2-6.1 0-1.7-0.4-3.2-1-3.2-0.5 0-1-2.7-0.9-6 0-5.5 0.1-5.9 1.7-4.9zm74 20.5c1.5 0.4 3.1 0.9 3.5 1.3 0.5 0.3-1.1 2.2-3.5 4.2-2.8 2.4-5.2 3.6-6.9 3.5-1.5 0-2.5-0.4-2.3-0.9 0.3-0.4-0.4-1.1-1.3-1.5-1.4-0.7-0.8-1.2 3-2.5 2.8-1 4.7-2.3 4.8-3.2 0-1.2 0.7-1.4 2.7-0.9zm-44 7c1.5 0.4 3 0.9 3.2 1.1 0.3 0.2-0.3 0.3-1.2 0.3-1 0-2 0.9-2.3 2-0.2 1.1-0.9 2-1.5 2-0.5 0-1-1.4-0.9-3 0-2.8 0.2-3 2.7-2.4zm15.7-0.4c1.7 0 2.4 0.2 1.7 0.5-0.7 0.2-2.1 0.2-3 0-0.9-0.3-0.3-0.5 1.3-0.5zm5.5 0c1.4 0 2 0.1 1.3 0.4-0.7 0.2-1.8 0.2-2.5 0-0.7-0.3-0.1-0.4 1.2-0.4zm8-0.1c0.9 0 2.2 0.3 3 0.8 1.2 0.6 1.2 1 0.3 1.5-0.7 0.3-1.3 0.2-1.3-0.4 0-0.6-0.8-1.2-1.7-1.4q-1.8-0.4-0.3-0.5zm-20.2 1c1.8-0.1 3.5 0.3 3.7 0.9 0.3 0.6 0 1-0.7 0.9-0.7-0.1-2.4-0.5-3.8-0.9-2.3-0.8-2.3-0.8 0.8-0.9zm-36.1 14.9c0.3 0 1.4 1 2.4 2.2 1.7 2.3 1.7 2.3-0.7 2-1.6-0.1-2.4-0.8-2.4-2.2 0-1.1 0.3-2 0.7-2zm14.2 1.8c2 0.9 3.7 1.8 3.9 1.9 0.1 0.2-0.4 1-1.3 1.8-1.3 1.3-1.7 1.3-3.5-0.3-1.1-0.9-2.1-2.5-2.3-3.4-0.4-1.5-0.1-1.6 3.2 0z"/><path  d="m52.1 86.5c-0.6 0.8-1 2-0.9 2.6 0.2 0.6 0.8 0 1.4-1.5 0.7-1.4 1-2.6 0.9-2.6-0.2 0-0.8 0.7-1.4 1.5zm29.1 21c0 1.9 0.2 2.3 0.5 1 0.2-1.1 0.2-2.5-0.1-3-0.2-0.5-0.4 0.3-0.4 2zm46 17.5c0 1.9 0.2 2.8 0.5 2 0.2-0.8 0.2-2.4 0-3.5-0.3-1.1-0.5-0.4-0.5 1.5z"/><path class="a" d="m62.5 44.2c-0.5 0.8 0.2 2.1 1.9 3.5 1.4 1.3 2.8 2.2 3.1 2 0.3-0.1-0.6-1.7-1.8-3.5-1.7-2.4-2.6-3-3.2-2zm26.9 57.8c-0.8 1.6-1.5 4-1.5 5.5 0.1 1.4 1.3 3.9 2.9 5.5 1.5 1.7 3.3 3 4 3 0.6 0 1.9-1 2.7-2.3 0.8-1.2 1.5-4.5 1.6-7.2 0-2.9-0.6-5.4-1.3-6.1-0.7-0.6-2.5-1.1-4-1.2-2.1-0.1-3.2 0.5-4.4 2.8zm-35.9 1.2c-1 1.2-1.7 3.8-1.6 5.8 0 1.9 0.8 4.5 1.6 5.8 1 1.4 2.5 2.2 4.4 2.2 1.6 0 3.7-0.8 4.7-1.8 1.2-1.3 1.5-2.7 1-5.7-0.3-2.2-1.3-5-2.1-6.3-0.9-1.3-2.5-2.2-4-2.2-1.3 0-3.1 1-4 2.2zm57.2 10.2c-1.5 3.1-4.2 7-6 8.6-1.7 1.7-2.6 3-2 3 0.7 0 2.7-1.7 4.5-3.7 1.7-2.1 4-5.8 5-8.3 1-2.5 1.7-4.6 1.5-4.8-0.2-0.2-1.5 2.2-3 5.2zm-67.7 0.9c0 2 0.4 3.7 1 3.7 0.5 0 1-1 1-2.2 0-1.3-0.5-3-1-3.8-0.7-1.1-1-0.5-1 2.3zm18.7 5c-0.4 0.9-0.7 2.5-0.6 3.5 0 1.2 0.3 0.9 1-0.8 0.5-1.4 0.8-3 0.6-3.5-0.2-0.5-0.6-0.2-1 0.8zm35.2 2.4c0.2 2.1 0.6 4 0.8 4.3 0.2 0.3 0.4-1.2 0.4-3.2 0.1-2-0.3-3.9-0.8-4.3-0.4-0.3-0.7 1.2-0.4 3.2zm-17.2 0.3c0.2 1.7 0.5 3 0.8 3 0.3 0 0.5-1.3 0.5-3 0-1.7-0.4-3-0.8-3-0.4 0-0.7 1.3-0.5 3zm-29.7 0c-0.5 1.1-0.7 2-0.3 2 0.5 0 1.3-0.9 1.9-2 0.6-1.1 0.7-2 0.3-2-0.5 0-1.3 0.9-1.9 2zm21.7-0.3c-0.4 1-0.5 2-0.2 2.3 0.3 0.3 0.6-0.3 0.8-1.3 0.1-1 0.2-2 0.2-2.3 0-0.3-0.4 0.3-0.8 1.3zm17 0.8c0.2 1.4 0.5 2.5 0.8 2.5 0.3 0 0.5-1.1 0.5-2.5 0-1.4-0.4-2.5-0.8-2.5-0.5 0-0.7 1.1-0.5 2.5zm28.8 1.3c0.3 0.7-0.5 1.5-1.8 1.8-1.2 0.3-5.1 0.5-8.7 0.3-3.6-0.2-6.9 0-7.4 0.4-0.5 0.4 3.1 0.7 8 0.7 6.9 0.1 9.2-0.3 10.1-1.5 0.9-0.9 0.9-1.7 0.3-2.2-0.6-0.3-0.8-0.1-0.5 0.5zm-44.5 4.4c-1.9 0.5-5.1 0.8-7.2 0.6-2.2-0.2-3.4 0.1-3 0.7 0.4 0.6 0.7 1.4 0.8 2 0.1 0.6 0.7 2.1 1.2 3.5 0.6 1.4 2.6 4.2 4.4 6.3 2.5 2.9 4.4 4 7.4 4.5 3.1 0.5 4.6 0.3 5.8-0.8 1.3-1.2 1.7-3.3 1.6-9.7v-8.3c-5.8 0.1-9.1 0.6-11 1.2zm61.5 19.6c-2.2 2.1-2.8 3.6-2.7 6 0.2 2.6-0.4 3.5-2.6 4.7-2.6 1.5-2.6 1.5-0.2 0.9 1.4-0.4 2.8-1.2 3.2-1.8 0.4-0.6 0.8-2.2 0.8-3.6 0-1.4 1.4-3.9 3.2-5.8 1.7-1.7 2.7-3.2 2.2-3.2-0.6 0-2.3 1.3-3.9 2.8z"/><path fill="oklch(19% 0 0deg)" d="m93.6 104c-0.4 1.4-1.2 1.9-2.6 1.5-1.5-0.4-2 0-2 1.5 0 1.5 0.5 1.9 2 1.5 1.5-0.4 2 0 2 1.5 0 1.1 0.5 2 1 2 0.6 0 1-0.9 1-2 0-1.1 0.6-2.2 1.3-2.5 1-0.4 1-0.6 0-1-0.7-0.3-1.1-1.4-0.9-2.5 0.2-1.1 0-2-0.4-2-0.5 0-1.1 0.9-1.4 2zm-37.6 1.5c0 1.6-0.6 2.5-1.5 2.5-0.8 0-1.5 0.7-1.5 1.5 0 0.9 0.6 1.3 1.5 1q1.5-0.5 1.5 1.5c0 1.1 0.5 2 1 2 0.6 0 1-0.9 1-2 0-1.2 0.8-2.2 2-2.5 1.1-0.3 2-1 2-1.5 0-0.5-0.9-0.8-2-0.5-1.6 0.4-2 0-2-2 0-1.4-0.4-2.5-1-2.5-0.5 0-1 1.1-1 2.5zm19 23.5c-1.4 0.4-4.2 0.8-6.2 0.9-3.6 0.1-3.8 0.2-3.2 2.9 0.3 1.5 1.4 3.3 2.5 4 1 0.6 1.9 1.8 1.9 2.5 0.1 0.6 1.1 2 2.3 3 1.2 1 3.1 2 4.2 2.3 1.1 0.3 3 0 4.3-0.8 2-1.2 2.3-2.1 2.2-8.5v-7.3c-4.3 0.2-6.6 0.6-8 1z"/></svg>