<svg version="1.2" xmlns="http://www.w3.org/2000/svg" viewBox="0 0 150 150" width="150" height="150"><style>.a{fill:#cdd6f4}.b{fill:#7f849c}.c{fill:none;stroke:#7f849c;stroke-miterlimit:100;stroke-width:10}.d{opacity:1;fill:#7b8097}</style><path class="a" d="m0 75v75h150v-150h-150z"/><path class="b" d="m37.2 131.3c0.5 0 0.8-0.3 0.8-0.7 0.5-6 1.4-24.2 1.4-25 0-0.4-0.3-0.8-0.8-0.8l-6.1-0.4h-0.1c-0.4 0-0.7 0.4-0.7 0.7l-0.4 13.1c0 0.3-0.1 0.5-0.2 0.5-0.1 0-0.2-0.1-0.3-0.3-3-5.1-6.9-11.6-8.9-13.5-0.1-0.2-0.8-0.4-1.2-0.4h-0.1l-6.2 0.3c-0.7 0-0.9 0.8-0.9 1.1v0.1l1.4 24.5c0 0.4 0.4 0.9 0.9 0.9h0.1l6-0.7c0.8-0.1 1.1-0.8 1.1-1.1l-1.7-13.7v-0.1c0-0.3 0.1-0.4 0.3-0.4 0.1 0 0.2 0.1 0.3 0.3 1.4 1.7 7.8 13.6 8.5 14.7 0.2 0.2 0.4 0.6 0.8 0.6zm25.5-9.4c0-4.1-3-9.6-10.1-9.6-5.6 0-10.6 3.4-10.6 10 0 5.6 4.6 9.4 9.8 9.4 4.6 0 10.9-3.5 10.9-9.8zm-10.1 3.7c-1.8 0-3.6-1.5-3.6-3.7 0-1.5 0.8-3.7 3.5-3.7 3.3 0 3.4 3.1 3.4 3.7 0 1.8-1 3.7-3.3 3.7zm52.5 3.5c0.3-0.1 0.4-0.5 0.4-0.8 0-0.2 0-0.4-0.1-0.5l-11.1-22.6c-0.1-0.3-0.7-0.6-1.3-0.6h-4.7c-0.4 0-0.9 0.2-1.1 0.4-5.2 4.9-10.7 22.8-10.7 23.8 0 0.5 0.2 0.9 0.9 1.1l4.9 1.4c0.1 0.1 0.3 0.1 0.5 0.1 0.3 0 0.6-0.2 0.8-0.6 0.1-0.3 0.5-1.5 1.1-3l5.9 0.3h0.1c0.4 0 0.7-0.4 0.8-0.8l0.4-5.7v-0.1c0-0.4-0.4-0.7-0.8-0.7l-3.6-0.2c2-5.1 2.3-6 2.6-6 0.1 0 0.2 0.1 0.3 0.3l7.1 15.9c0.1 0.3 0.5 0.6 1 0.6 0.1 0 0.3-0.1 0.5-0.1zm11 1.9c0.3 0 0.6-0.3 0.6-0.7l-0.6-11.4c0.5-0.1 1-0.1 1.4-0.1 0.5 0 1.1 0.1 1.6 0.2 0.1 0 0.3 0.1 0.4 0.1 0.3 0 0.7-0.2 0.8-0.7l0.9-4.5c0-0.2 0-0.3 0-0.4 0-0.4-0.1-0.7-0.6-0.8-1-0.2-2.1-0.3-3.2-0.3-1.6 0-3.2 0.2-5 0.8l-3.7 0.1c-0.3 0-0.6 0.4-0.6 0.8l0.9 16.6c0 0.4 0.3 0.6 0.7 0.6zm19.5-4.4c0-0.1 0-0.2 0-0.3 0-0.4-0.3-0.5-0.7-0.6-1.4-0.7-1.8-2.9-1.8-5.8l2.1 0.1h0.1c0.3 0 0.6-0.3 0.6-0.6l0.4-5.3c0-0.4-0.3-0.7-0.6-0.7l-2.2-0.1c0.1-1.4 0.2-2.8 0.2-4.1 0-0.6-0.2-0.9-0.8-0.9l-6-0.3h-0.1c-0.9 0-0.9 0.6-1 1-0.1 1.4-0.1 2.7-0.2 3.9l-2-0.1c-0.4 0-0.7 0.2-0.8 0.6l-0.3 5.3c0 0.4 0.3 0.7 0.6 0.7l2.4 0.1c0.2 8.1 2 11 7.1 12 0.1 0 0.2 0 0.3 0 0.5 0 0.8-0.3 1-0.9z"/><path class="c" d="m150 0v150h-150v-150z"/><path class="d" d="m41.5 31.1c-2.8 0.3-6.6 1.4-8.5 2.4-1.9 1-4.8 3.2-6.4 4.9-1.5 1.7-3.8 5.1-4.9 7.6-1.6 3.3-2.2 7.1-2.5 14.5-0.3 8.4 0 10.9 1.7 15.5 1.2 3 3.5 7 5.1 8.7 1.7 1.8 4.9 4.2 7.3 5.2 2.3 1 6.5 2.2 9.2 2.6 2.8 0.4 7.5 0.2 10.5-0.3 3-0.6 7.4-1.8 9.8-2.9 2.3-1 4.4-2.6 4.7-3.6 0.3-0.9-0.4-3.7-1.5-6.2-1.9-4.4-2.1-4.5-4.2-3-1.3 0.9-3.9 2.3-5.8 3.2-1.9 0.9-5.6 1.7-8.2 1.7-3.2 0.1-5.5-0.5-7.5-2-1.5-1.1-3.8-4-5.1-6.5-2-3.8-2.3-5.5-2-12.4 0.3-5.6 1-9 2.3-11.4 1.1-1.9 3.1-4.2 4.5-5.3 1.4-1 4.3-2.1 6.5-2.4 2.6-0.4 5.5 0 8.3 1 3.1 1.2 4.8 2.7 6.6 5.8 1.3 2.4 4 9 5.9 14.8 1.9 5.8 4.4 12.3 5.5 14.5 1.1 2.2 3.3 5.2 4.9 6.7 1.5 1.4 4.6 3.6 6.8 4.7 2.2 1.2 7.2 2.6 11 3.2 3.8 0.5 9.9 0.7 13.5 0.3 3.6-0.3 8.4-1.5 10.8-2.5 2.3-1 5-2.7 6.1-3.7 1-0.9 2.3-2.7 3-4 0.6-1.2 1.1-4.8 1.1-8 0.1-4.7-0.4-6.4-2.8-9.7-1.7-2.5-4.4-4.7-7-5.8-2.3-0.9-7.2-2.4-11-3.2-3.7-0.8-7.7-2.4-9-3.5-1.2-1.1-2.2-3-2.2-4.3 0-1.2 0.5-3 1.2-4 0.7-1 3.1-2.1 5.3-2.4 2.2-0.3 5.2-0.3 6.7 0.1q2.8 0.6 4.2 3.8l1.4 3.3c9.9-1.2 12.8-1.7 12.9-1.8 0.1-0.1-0.2-1.8-0.8-3.7-0.5-1.9-1.6-4.5-2.4-5.8-0.8-1.2-3.6-3.2-6.3-4.4-3.5-1.6-6.7-2.1-12.7-2.1-6.5-0.1-8.9 0.4-13 2.4-3 1.4-5.9 3.8-7.3 5.9-1.7 2.7-2.2 4.9-2.2 9.5 0 4.2 0.6 7 2 9.2 1.1 1.8 3.5 4.2 5.2 5.3 1.8 1.1 6.9 2.8 11.3 3.7 4.3 1 9 2.6 10.2 3.5 1.6 1.3 2.3 2.8 2.3 5.3 0 2.5-0.6 3.8-2 4.5-1.1 0.5-4.1 1.3-6.8 1.6-2.6 0.4-7 0.2-9.7-0.4-3.8-0.9-6-2.2-9-5.4-3.3-3.5-4.8-6.4-7.9-15.8-2.1-6.3-4.8-13.3-6-15.5-1.3-2.2-4.3-5.7-6.7-7.7-2.4-2.1-6.2-4.2-8.4-4.7-2.2-0.6-6-1.2-8.5-1.3-2.5-0.2-6.8-0.1-9.5 0.3z"/></svg>