<svg width="104.468" height="20" viewBox="0 0 982 188" fill="currentColor" xmlns="http://www.w3.org/2000/svg"><path d="M98.982 152.25c-4.817-11.64-14.794-20.997-27.882-24.523l-56.16-15.128c-7.11 26.683 8.675 54.377 35.339 61.56l40.227 10.836a8.34 8.34 0 007.791-1.881 8.351 8.351 0 008.731 2.887l40.227-10.837c26.663-7.182 42.449-34.877 35.338-61.56l-56.16 15.129c-12.708 3.423-22.484 12.345-27.45 23.517z" fill="hsl(197deg 49% 38%/.5)"/><path d="M99 177.99c-4.632-22.874-24.81-40.257-49-40.257H0C0 165.347 22.386 188 50 188h98c27.614 0 50-22.653 50-50.267h-50c-24.19 0-44.368 17.383-49 40.257z" fill="hsl(197deg 49% 38%)"/><path d="M116.172 22.1A50.064 50.064 0 0095.918 0L83.9 20.927a50.81 50.81 0 00-1.026 1.876C70.832 12.808 54.28 8.625 38 13.01l13.005 48.796c4.738 17.775 18.478 30.722 35.006 35.262l-.011.041a50.025 50.025 0 0013.082 1.733c4.323.006 8.72-.554 13.096-1.733l-.011-.041c16.529-4.54 30.268-17.487 35.006-35.262l13.005-48.796c-15.891-4.28-32.043-.397-44.006 9.09z" fill="hsl(2deg 55% 83%)"/><path d="M398.009 84.111c0-24.335-19.311-42.861-43.489-42.861h-47.1V159h25.12v-32.028h19.154L373.203 159h27.946l-25.277-37.366c13.345-7.222 22.137-21.038 22.137-37.523zm-65.469 21.98v-43.96h20.253c13.345 0 20.096 9.263 20.096 21.98s-6.751 21.98-20.096 21.98H332.54zm108.877-27.946c-22.294 0-41.919 14.758-41.919 40.977 0 26.219 19.625 40.663 41.919 40.663 22.294 0 41.919-14.444 41.919-40.663 0-26.219-19.625-40.977-41.919-40.977zm0 19.154c11.775 0 17.584 9.106 17.584 21.823 0 12.56-5.809 21.509-17.584 21.509-11.775 0-17.584-8.949-17.584-21.509 0-12.717 5.809-21.823 17.584-21.823zm71.155 4.71c0-3.297 4.082-4.71 6.908-4.71 6.28 0 11.932 3.297 16.014 7.536l13.659-13.659c-7.693-9.106-20.724-13.031-31.714-13.031-11.147 0-29.202 5.181-29.202 21.98 0 9.577 6.123 15.7 19.782 22.451 10.519 5.181 16.171 8.007 16.171 13.031 0 3.297-2.512 5.024-7.379 5.024-5.181 0-12.874-3.14-19.311-9.734l-14.13 14.13c8.478 9.577 23.393 14.758 35.482 14.758 16.642 0 29.673-8.007 29.673-22.765 0-11.304-8.321-17.898-20.881-23.55-12.56-5.809-15.072-7.693-15.072-11.461zM583.1 62.602h16.642l16.014-19.782-18.369-7.85L583.1 62.602zm48.513 64.213v-8.007c0-23.236-15.229-40.663-39.721-40.663-24.021 0-39.564 17.741-39.564 40.663 0 22.922 15.543 40.977 40.977 40.977 14.601 0 25.434-5.024 33.912-13.345l-14.444-13.345c-4.71 5.024-11.932 7.536-18.212 7.536-8.949 0-17.898-5.181-17.898-14.287l54.95.471zm-24.335-15.229h-30.615c0-8.635 6.751-14.287 15.229-14.287 8.792 0 15.386 5.652 15.386 14.287zm172.979-26.062c0-24.335-17.741-44.274-44.745-44.274h-45.687V159h25.12v-29.202h20.567c27.004 0 44.745-19.782 44.745-44.274zm-46.629 23.393h-18.683V62.131h18.683c13.188 0 21.509 10.676 21.509 23.393 0 12.874-8.321 23.393-21.509 23.393zm78.854-57.148c0-6.123-5.181-11.304-12.089-11.304-6.594 0-12.089 5.181-12.089 11.304 0 6.437 5.495 11.461 12.089 11.461 6.908 0 12.089-5.024 12.089-11.461zM812.325 159V78.93h-24.178V159h24.178zm81.501 0l-.157-48.042c0-22.294-8.949-32.813-27.475-32.813-8.321 0-17.584 3.297-22.608 9.734V78.93H820.35V159h23.236v-46.472c0-11.932 4.082-16.956 13.502-16.956 9.106 0 13.502 5.024 13.502 16.956V159h23.236zm84.045-32.185v-8.007c0-23.236-15.229-40.663-39.721-40.663-24.021 0-39.564 17.741-39.564 40.663 0 22.922 15.543 40.977 40.977 40.977 14.601 0 25.434-5.024 33.912-13.345l-14.444-13.345c-4.71 5.024-11.932 7.536-18.212 7.536-8.949 0-17.898-5.181-17.898-14.287l54.95.471zm-24.335-15.229h-30.615c0-8.635 6.751-14.287 15.229-14.287 8.792 0 15.386 5.652 15.386 14.287z" fill="hsl(245deg 50% 91%)"/></svg>