<svg xmlns="http://www.w3.org/2000/svg" viewBox="0 0 339.14 300.06" fill="currentColor" stroke="0">
    <polygon
        points="96.95 142.39 149.38 5.71 180.96 4.95 199.66 102.04 176.46 108.58 172.95 72.53 144.65 80.57 123.27 135.54 96.95 142.39">
    </polygon>
    <path
        d="m286.78,75.86c0,6.4-2.63,10.34-9.03,10.34s-11.59-2.69-11.59-9.09,5.19-11.59,11.59-11.59,9.03,3.94,9.03,10.34Z">
    </path>
    <path
        d="m247.89,161.1c7.08,18.78-3.85,42.08-23.92,47.19-18.13,4.61-42.43-5.37-47.55-24.77-5.13-19.4,5.92-42.68,25.94-47.97,20.02-5.29,37.87,5.25,45.53,25.55Z">
    </path>
    <path
        d="m300.9,131.8c1.1,15.19-3.04,26.69-17.94,29.89-15.43,3.32-31.17-6.29-32.26-21.48-1.1-15.19,8.31-28.56,23.5-29.66s25.6,6.06,26.7,21.25Z">
    </path>
    <path
        d="m336.31,159.1c.42,5.8-5.54,9.49-11.34,9.91s-9.76-3.97-10.17-9.77,5.58-10.87,11.39-11.29,9.71,5.35,10.13,11.15Z">
    </path>
    <polygon points="321.14 96.66 321.32 141.37 331 140.06 339.14 97.66 321.14 96.66"></polygon>
    <polygon points="0 .96 53.18 99.82 32.39 159.48 59.5 165.34 119.01 0 90.42 1.22 66.93 69.35 35 0 0 .96"></polygon>
    <polygon
        points="195.57 5.62 230.24 61.41 215.8 97.66 239.03 91.76 275.09 7.92 253.81 7.18 239.66 40.68 214.62 4.7 195.57 5.62">
    </polygon>
    <path
        d="m83.24,168.24l37.19,131.82s37.3-14.57,52.14-24.59c15.99-10.79,21.56-26.06,15.01-46.3-5.11-15.81-22.52-27.65-40.3-22.47,0,0,17.1-10.88,14.68-31.92-3.82-15.25-18.09-21.59-29.87-19.75-14.66,1-48.85,13.22-48.85,13.22Z">
    </path>
</svg>