<svg xmlns="http://www.w3.org/2000/svg" viewBox="0 0 339.14 300.06" fill="currentColor" stroke="0"><path d="M96.95 142.39L149.38 5.71l31.58-.76 18.7 97.09-23.2 6.54-3.51-36.05-28.3 8.04-21.38 54.97-26.32 6.85zM286.78 75.86c0 6.4-2.63 10.34-9.03 10.34s-11.59-2.69-11.59-9.09 5.19-11.59 11.59-11.59 9.03 3.94 9.03 10.34zM247.89 161.1c7.08 18.78-3.85 42.08-23.92 47.19-18.13 4.61-42.43-5.37-47.55-24.77-5.13-19.4 5.92-42.68 25.94-47.97 20.02-5.29 37.87 5.25 45.53 25.55zM300.9 131.8c1.1 15.19-3.04 26.69-17.94 29.89-15.43 3.32-31.17-6.29-32.26-21.48-1.1-15.19 8.31-28.56 23.5-29.66s25.6 6.06 26.7 21.25zM336.31 159.1c.42 5.8-5.54 9.49-11.34 9.91s-9.76-3.97-10.17-9.77 5.58-10.87 11.39-11.29 9.71 5.35 10.13 11.15zM321.14 96.66l.18 44.71 9.68-1.31 8.14-42.4-18-1zM0 .96l53.18 98.86-20.79 59.66 27.11 5.86L119.01 0 90.42 1.22 66.93 69.35 35 0 0 .96zM195.57 5.62l34.67 55.79-14.44 36.25 23.23-5.9 36.06-83.84-21.28-.74-14.15 33.5L214.62 4.7l-19.05.92zM83.24 168.24l37.19 131.82s37.3-14.57 52.14-24.59c15.99-10.79 21.56-26.06 15.01-46.3-5.11-15.81-22.52-27.65-40.3-22.47 0 0 17.1-10.88 14.68-31.92-3.82-15.25-18.09-21.59-29.87-19.75-14.66 1-48.85 13.22-48.85 13.22z"/></svg>